<svg id="Слой_1" data-name="Слой 1" xmlns="http://www.w3.org/2000/svg" width="562.56739" height="557.33339" viewBox="0 0 562.56739 557.33339">
  <title>8H</title>
  <g>
    <path d="M573.50936,194.82588q7.93083-21.85807,7.94362-48.07458,0-26.21011-7.94362-48.07458A100.76936,100.76936,0,0,0,548.866,60.54465c-1.60536-1.57-3.30042-3.07523-5.04454-4.54524Q528.323,42.93668,505.56287,35.11469q-26.61635-9.14934-63.96182-9.14295A274.40521,274.40521,0,0,0,405.88483,28.126q-34.25417,4.51091-54.46231,18.50441-29.80787,20.65874-40.93036,50.85993A97.67456,97.67456,0,0,0,295.80424,68.888q-9.96183-13.52079-26.62929-23.8438Q252.501,34.715,228.65716,28.35746a164.62943,164.62943,0,0,0-16.29867-3.40037A258.98225,258.98225,0,0,0,171.45257,22Q129.323,22,99.934,31.54272,78.90033,38.36485,63.80276,49.06589a96.9955,96.9955,0,0,0-11.14382,9.09319,100.2942,100.2942,0,0,0-25.82974,39.731,146.80387,146.80387,0,0,0-7.94362,48.86119,140.33836,140.33836,0,0,0,8.74317,50.06037,98.90436,98.90436,0,0,0,27.01613,39.3314,103.31288,103.31288,0,0,0,9.722,7.64834Q80.0285,254.69135,101.52014,261.573q28.60876,9.11075,68.33347,9.13a289.14,289.14,0,0,0,43.12088-2.91159,173.11638,173.11638,0,0,0,17.26883-3.44586q24.62394-6.36385,40.53059-17.07363a97.34225,97.34225,0,0,0,25.41717-24.24357,103.40464,103.40464,0,0,0,14.30108-28.60229,108.30605,108.30605,0,0,0,15.5004,28.20252,97.3528,97.3528,0,0,0,25.43,23.04425q15.494,9.92323,37.74524,15.5004a169.35979,169.35979,0,0,0,17.35242,3.33369,246.02276,246.02276,0,0,0,34.29426,2.22436q38.12554,0,64.74843-9.13,23.22842-7.98478,38.894-21.0984,2.28392-1.91244,4.40919-3.93193A97.70488,97.70488,0,0,0,573.50936,194.82588Z" transform="translate(-18.88559 -22)" style="fill: #3f7d8a"/>
    <path d="M295.01748,187.28189a82.41867,82.41867,0,0,1-22.18029,33.36079q-15.45519,14.31408-40.78848,22.25763-25.359,7.93083-61.79546,7.94362-133.10117,0-133.0947-104.89218,0-50.041,32.08412-77.86312Q101.31378,40.273,172.626,40.28589q68.92034,0,99.02478,30.18832,25.59061,25.67271,29.4071,62.26632a126.38392,126.38392,0,0,1,.704,13.21122c0,3.07679-.12084,6.09757-.3149,9.08409A119.807,119.807,0,0,1,295.01748,187.28189Z" transform="translate(-18.88559 -22)" style="fill: #fff"/>
    <path d="M348.93373,219.05651q-28.89878-27.81568-28.89885-73.10476,0-45.28269,29.29863-73.4916,29.305-28.22192,91.08116-28.20252,61.763,0,92.26741,26.61635,29.14935,25.45008,30.40142,70.88936c.0344,1.22378.06952,2.44685.07364,3.69252.00057.16719.01.32827.01.49588q0,49.26751-30.485,75.0907-30.50435,25.82327-93.85357,25.82974Q377.839,246.87219,348.93373,219.05651Z" transform="translate(-18.88559 -22)" style="fill: #fff"/>
    <path d="M532.68207,221.04246q30.48516-25.82327,30.485-75.0907c0-.16762-.00938-.32869-.01-.49588a69.42989,69.42989,0,1,1-35.9572-61.24158A23.543,23.543,0,0,0,542.03713,128.471c.40831-.07791.80709-.17913,1.20771-.2778a23.56482,23.56482,0,0,0,14.34685-10.42189,69.10011,69.10011,0,0,1,5.4918,23.99208q-1.27738-45.4326-30.40142-70.88936-30.50435-26.63576-92.26741-26.61635-61.7826,0-91.08116,28.20252-29.305,28.20252-29.29863,73.4916,0,45.30209,28.89885,73.10476,28.899,27.81568,89.89477,27.81568Q502.197,246.87219,532.68207,221.04246Z" transform="translate(-18.88559 -22)" style="fill: #fff"/>
    <path d="M232.7186,214.51667A69.45162,69.45162,0,1,1,266.20308,84.21429,23.543,23.543,0,0,0,281.04027,128.471c.40831-.07791.80709-.17913,1.20771-.2778a23.56482,23.56482,0,0,0,14.34685-10.42189,68.94768,68.94768,0,0,1,4.46307,14.96926q-3.83682-36.57946-29.4071-62.26632Q241.55269,40.26009,172.626,40.28589q-71.29938,0-103.38336,27.80274Q37.15215,95.88491,37.15855,145.95175q0,104.89865,133.0947,104.89218,36.42358,0,61.79546-7.94362,25.33962-7.95,40.78848-22.25763a82.41867,82.41867,0,0,0,22.18029-33.36079,119.807,119.807,0,0,0,6.42953-32.24605A69.45785,69.45785,0,0,1,232.7186,214.51667Z" transform="translate(-18.88559 -22)" style="fill: #fff"/>
    <path d="M282.248,128.19316q.81036,2.37946,1.394,4.85645a28.81472,28.81472,0,0,1,0,24.03089,52.32739,52.32739,0,1,1-29.224-59.627,23.60114,23.60114,0,0,1,11.78513-13.23922A69.45532,69.45532,0,1,0,301.447,155.03584c.19406-2.98652.3149-6.0073.3149-9.08409a126.38392,126.38392,0,0,0-.704-13.21122,68.94768,68.94768,0,0,0-4.46307-14.96926A23.56482,23.56482,0,0,1,282.248,128.19316Z" transform="translate(-18.88559 -22)" style="fill: #284f57"/>
    <path d="M282.248,128.19316c-.40063.09866-.79941.19989-1.20771.2778a28.98375,28.98375,0,0,1,2.60167,4.57865Q283.06,130.57376,282.248,128.19316Z" transform="translate(-18.88559 -22)" style="fill: #3f7d8a"/>
    <path d="M180.39307,145.06505A52.3233,52.3233,0,0,0,283.64194,157.0805a29.027,29.027,0,1,1-27.98472-40.97884,23.33992,23.33992,0,0,1-1.23928-18.64814,52.3207,52.3207,0,0,0-74.02487,47.61154Z" transform="translate(-18.88559 -22)" style="fill: #3f7d8a"/>
    <path d="M228.18146,145.06505a29.02666,29.02666,0,1,0,52.8588-16.5941,23.47117,23.47117,0,0,1-25.383-12.3693A29.01864,29.01864,0,0,0,228.18146,145.06505Z" transform="translate(-18.88559 -22)"/>
    <path d="M543.24484,128.19316q.81036,2.37946,1.394,4.85645a28.81472,28.81472,0,0,1,0,24.03089,52.32739,52.32739,0,1,1-29.224-59.627,23.60114,23.60114,0,0,1,11.78513-13.23922,69.45724,69.45724,0,1,0,35.9572,61.24158c-.00412-1.24567-.03924-2.46874-.07364-3.69252a69.10011,69.10011,0,0,0-5.4918-23.99208A23.56482,23.56482,0,0,1,543.24484,128.19316Z" transform="translate(-18.88559 -22)" style="fill: #284f57"/>
    <path d="M441.38993,145.06505A52.3233,52.3233,0,0,0,544.6388,157.0805a29.027,29.027,0,1,1-27.98472-40.97884,23.33992,23.33992,0,0,1-1.23928-18.64814,52.3207,52.3207,0,0,0-74.02487,47.61154Z" transform="translate(-18.88559 -22)" style="fill: #3f7d8a"/>
    <path d="M489.17833,145.06505a29.02666,29.02666,0,1,0,52.8588-16.5941,23.47117,23.47117,0,0,1-25.383-12.3693A29.01864,29.01864,0,0,0,489.17833,145.06505Z" transform="translate(-18.88559 -22)"/>
    <path d="M296.191,559.46138V389.05507H281.10138c-136.32762,0-257.44443-34.88883-257.44443-34.88883V334.30713S139.0457,369.196,306.30153,369.196c163.82584,0,270.38013-34.88883,270.38013-34.88883v19.85911s-100.95023,34.88883-247.46291,34.88883H314.4769V559.46138H576.68166v19.872H23.657v-19.872Z" transform="translate(-18.88559 -22)" style="fill: #3f7d8a"/>
  </g>
</svg>
